<svg width="1701" height="1701" viewBox="0 0 1701 1701" fill="none" xmlns="http://www.w3.org/2000/svg">
<path fill-rule="evenodd" clip-rule="evenodd" d="M1058.25 848.69C1058.25 925.803 1016.36 993.133 954.086 1029.16L1024.84 1151.71C1028.96 1158.84 1038.19 1161.1 1045.14 1156.69C1146.95 1092.01 1214.52 978.239 1214.52 848.69C1214.52 713.741 1141.2 595.912 1032.23 532.865L961.072 656.116C957.258 662.722 959.226 671.127 965.567 675.366C1021.45 712.739 1058.25 776.417 1058.25 848.69ZM596.746 410.231C592.668 403.165 583.547 400.874 576.607 405.159C428.022 496.908 329 661.234 329 848.69C329 1041.47 433.731 1209.8 589.402 1299.87L660.465 1176.79C664.353 1170.05 662.225 1161.47 655.648 1157.32C553.277 1092.76 485.267 978.663 485.267 848.69C485.267 713.741 558.581 595.912 667.55 532.865L596.746 410.231Z" fill="#D2E1F0"/>
<path fill-rule="evenodd" clip-rule="evenodd" d="M1214.51 848.69C1214.51 978.238 1146.95 1092.01 1045.14 1156.69C1038.2 1161.09 1028.95 1158.83 1024.84 1151.71L954.085 1029.16C923.433 1046.9 887.848 1057.05 849.89 1057.05C735.37 1057.05 641.534 964.313 641.534 848.69C641.534 776.417 678.331 712.738 734.214 675.366C740.544 671.132 742.517 662.712 738.709 656.115L667.549 532.864C558.579 595.912 485.266 713.74 485.266 848.69C485.266 978.663 553.275 1092.76 655.647 1157.32C662.218 1161.47 664.347 1170.06 660.463 1176.79L589.4 1299.87C666.028 1344.21 754.998 1369.58 849.89 1369.58C1136.19 1369.58 1370.78 1137.75 1370.78 848.69C1370.78 661.234 1271.76 496.908 1123.18 405.158C1116.24 400.877 1107.11 403.176 1103.03 410.231L1032.23 532.864C1141.2 595.912 1214.51 713.74 1214.51 848.69Z" fill="#96AAB9"/>
<path fill-rule="evenodd" clip-rule="evenodd" d="M940.929 280.598L758.071 280.598L849.5 439.197L940.929 280.598ZM808.601 557.445L635.368 256.947C617.234 225.49 639.998 186 676.27 186L1022.73 186C1059 186 1081.77 225.49 1063.63 256.947L890.4 557.445C872.293 588.852 826.708 588.852 808.601 557.445Z" fill="#00E1C8"/>
<path d="M291 452.5H247V475.526L265.919 488.652L291 452.5ZM335 225C335 200.699 315.301 181 291 181C266.699 181 247 200.699 247 225H335ZM500.581 544.348L316.081 416.348L265.919 488.652L450.419 616.652L500.581 544.348ZM335 452.5V225H247V452.5H335Z" fill="#D2E1F0"/>
<path d="M205.75 853.208L167.645 875.208L180.347 897.208L205.75 897.208L205.75 853.208ZM130.105 634.188C117.955 613.143 91.0449 605.932 70 618.082C48.9551 630.233 41.7446 657.143 53.8949 678.188L130.105 634.188ZM432.5 809.208L205.75 809.208L205.75 897.208L432.5 897.208L432.5 809.208ZM243.855 831.208L130.105 634.188L53.8949 678.188L167.645 875.208L243.855 831.208Z" fill="#D2E1F0"/>
<path d="M174.895 1322.37C162.745 1343.42 169.955 1370.33 191 1382.48C212.045 1394.63 238.955 1387.42 251.105 1366.37L174.895 1322.37ZM326.375 1148L326.375 1104L300.972 1104L288.27 1126L326.375 1148ZM251.105 1366.37L364.48 1170L288.27 1126L174.895 1322.37L251.105 1366.37ZM326.375 1192L553.875 1192L553.875 1104L326.375 1104L326.375 1192Z" fill="#D2E1F0"/>
<path d="M1430 471.82H1474V493.355L1456.99 506.567L1430 471.82ZM1386 244C1386 219.699 1405.7 200 1430 200C1454.3 200 1474 219.699 1474 244H1386ZM1238.01 565.253L1403.01 437.073L1456.99 506.567L1291.99 634.747L1238.01 565.253ZM1386 471.82V244H1474V471.82H1386Z" fill="#96AAB9"/>
<path d="M1505.51 872.208L1542.45 896.112L1531.15 918.049L1507.58 918.049L1505.51 872.208ZM1570.06 651.284C1581.19 629.682 1606.75 622.871 1627.15 636.072C1647.55 649.274 1655.07 677.488 1643.94 699.091L1570.06 651.284ZM1301.12 826.368L1503.44 826.368L1507.58 918.049L1305.26 918.049L1301.12 826.368ZM1468.57 848.305L1570.06 651.284L1643.94 699.091L1542.45 896.112L1468.57 848.305Z" fill="#96AAB9"/>
<path d="M1538.1 1342.83C1549.24 1364.42 1540.77 1390.96 1519.17 1402.1C1497.58 1413.24 1471.04 1404.77 1459.9 1383.17L1538.1 1342.83ZM1397.89 1167L1397.89 1123L1424.7 1123L1436.99 1146.83L1397.89 1167ZM1459.9 1383.17L1358.79 1187.17L1436.99 1146.83L1538.1 1342.83L1459.9 1383.17ZM1397.89 1211L1195 1211L1195 1123L1397.89 1123L1397.89 1211Z" fill="#96AAB9"/>
</svg>
